<svg width="1173" height="763" viewBox="0 0 1173 763" fill="none" xmlns="http://www.w3.org/2000/svg">
  <g filter="url(#filter0_d)">
    <g clip-path="url(#clip0)">
      <g opacity="0.2">
        <path opacity="0.2"
          d="M1009.09 725.43C1008.59 726.369 1008.01 727.261 1007.36 728.096C1001.61 724.042 995.768 720.071 989.827 716.183C989.947 715.933 990.077 715.673 990.216 715.424C991.595 712.757 993.663 710.509 996.203 708.913C999.486 706.915 1003.19 706.436 1006.18 708.054C1009.18 709.672 1010.93 712.987 1011.11 716.822C1011.22 719.821 1010.52 722.793 1009.09 725.43V725.43Z"
          fill="#A3BAD2" />
        <path opacity="0.2"
          d="M1017.12 710.392C1020.73 703.564 1019.44 695.789 1014.23 693.027C1009.02 690.265 1001.86 693.561 998.25 700.389C994.636 707.217 995.93 714.992 1001.14 717.754C1006.35 720.516 1013.51 717.22 1017.12 710.392Z"
          fill="#A3BAD2" />
        <path opacity="0.2"
          d="M1025.11 695.278C1028.73 688.45 1027.43 680.675 1022.22 677.913C1017.01 675.151 1009.86 678.447 1006.24 685.275C1002.63 692.103 1003.92 699.878 1009.13 702.64C1014.34 705.402 1021.5 702.106 1025.11 695.278Z"
          fill="#A3BAD2" />
        <path opacity="0.2"
          d="M1033.12 680.159C1036.73 673.331 1035.44 665.556 1030.23 662.794C1025.02 660.032 1017.86 663.328 1014.25 670.156C1010.63 676.984 1011.93 684.759 1017.14 687.521C1022.35 690.284 1029.5 686.988 1033.12 680.159Z"
          fill="#A3BAD2" />
        <path opacity="0.2"
          d="M1041.12 665.036C1044.73 658.208 1043.44 650.433 1038.23 647.671C1033.01 644.909 1025.86 648.205 1022.25 655.033C1018.63 661.861 1019.93 669.636 1025.14 672.398C1030.35 675.16 1037.5 671.864 1041.12 665.036Z"
          fill="#A3BAD2" />
      </g>
      <path
        d="M1058.02 113.555H91.3712C90.2382 113.556 89.1165 113.781 88.0704 114.217C87.0242 114.652 86.0741 115.29 85.2743 116.093C84.4746 116.896 83.8408 117.849 83.4094 118.898C82.9779 119.946 82.7572 121.069 82.7598 122.203V714.276C82.7559 716.561 83.2018 718.826 84.0722 720.939C84.9427 723.052 86.2205 724.973 87.8327 726.592C89.445 728.212 91.3601 729.497 93.4687 730.375C95.5774 731.254 97.8382 731.708 100.122 731.712H1049.27C1051.55 731.708 1053.81 731.254 1055.92 730.375C1058.03 729.497 1059.95 728.212 1061.56 726.592C1063.17 724.973 1064.45 723.052 1065.32 720.939C1066.19 718.826 1066.64 716.561 1066.63 714.276V122.203C1066.63 119.914 1065.73 117.717 1064.11 116.096C1062.5 114.474 1060.31 113.56 1058.02 113.555Z"
        fill="#364F6B" />
      <path
        d="M1062.72 125.409V150.315H86.8311V125.409C86.8311 123.142 87.731 120.967 89.3328 119.364C90.9347 117.761 93.1072 116.86 95.3726 116.86H1054.18C1056.44 116.86 1058.62 117.761 1060.22 119.364C1061.82 120.967 1062.72 123.142 1062.72 125.409V125.409Z"
        fill="white" />
      <path opacity="0.8"
        d="M102.298 137.333C104.502 137.333 106.289 135.544 106.289 133.338C106.289 131.132 104.502 129.344 102.298 129.344C100.094 129.344 98.3066 131.132 98.3066 133.338C98.3066 135.544 100.094 137.333 102.298 137.333Z"
        fill="#FA5959" />
      <path opacity="0.8"
        d="M113.274 137.333C115.478 137.333 117.265 135.544 117.265 133.338C117.265 131.132 115.478 129.344 113.274 129.344C111.069 129.344 109.282 131.132 109.282 133.338C109.282 135.544 111.069 137.333 113.274 137.333Z"
        fill="#FED253" />
      <path opacity="0.8"
        d="M124.25 137.333C126.455 137.333 128.242 135.544 128.242 133.338C128.242 131.132 126.455 129.344 124.25 129.344C122.046 129.344 120.259 131.132 120.259 133.338C120.259 135.544 122.046 137.333 124.25 137.333Z"
        fill="#8CCF4D" />
      <path d="M405.063 199.438H311.266V209.424H405.063V199.438Z" fill="white" />
      <path d="M838.126 228.398H311.266V238.385H838.126V228.398Z" fill="white" />
      <path d="M838.126 257.359H311.266V267.345H838.126V257.359Z" fill="white" />
      <path d="M838.126 286.319H311.266V296.306H838.126V286.319Z" fill="white" />
      <path d="M838.126 315.28H311.266V325.266H838.126V315.28Z" fill="white" />
      <path d="M737.174 370.524H411.878V622.181H737.174V370.524Z" fill="white" />
      <path
        d="M631.603 448.488C631.184 448.488 630.765 448.548 630.336 448.558C630.477 447.977 630.524 447.377 630.475 446.78C630.353 444.262 629.671 441.802 628.48 439.58C627.746 438.271 626.919 437.016 626.005 435.825C623.291 432.071 620.776 428.236 617.793 424.691C616.499 423.313 615.431 421.739 614.629 420.027C614.328 419.103 613.968 418.199 613.552 417.321C612.975 416.423 612.162 415.701 611.203 415.235C610.244 414.768 609.175 414.574 608.114 414.674C605.979 414.926 604.015 415.966 602.606 417.59C601.767 418.489 601.079 419.877 601.777 420.896C602.476 421.914 603.993 422.044 604.082 423.163C604.082 423.762 604.082 424.741 603.474 424.93C602.393 425.216 601.363 425.668 600.42 426.268C599.954 426.578 599.566 426.991 599.287 427.477C599.008 427.962 598.846 428.506 598.814 429.065C600.54 429.324 601.987 427.876 603.553 427.067C605.542 426.219 607.774 426.137 609.82 426.838C610.606 427.047 611.34 427.418 611.975 427.926C612.535 428.476 613.006 429.109 613.372 429.804C615.294 432.585 616.482 435.807 616.825 439.171L617.703 444.783C616.404 444.887 615.112 445.06 613.831 445.303C610.385 445.811 606.87 445.573 603.524 444.603C600.031 443.605 596.539 441.787 592.936 442.606C591.25 442.976 589.713 443.914 588.007 444.184C586.674 444.313 585.328 444.242 584.016 443.974L581.272 443.535C581.182 443.305 581.112 443.066 581.042 442.826C580.475 440.823 580.212 438.746 580.264 436.664C582.053 436.568 583.792 436.035 585.328 435.112C586.864 434.188 588.15 432.903 589.076 431.367C590.001 429.831 590.536 428.092 590.635 426.302C590.734 424.512 590.394 422.724 589.644 421.096C591.123 420.265 592.348 419.046 593.186 417.57L592.487 417.44L593.146 416.442C592.991 416.347 592.86 416.218 592.763 416.064C592.666 415.91 592.606 415.736 592.588 415.555C592.57 415.374 592.593 415.192 592.657 415.022C592.721 414.851 592.824 414.698 592.956 414.574C592.375 414.273 591.725 414.128 591.07 414.155C591.28 413.765 590.941 413.286 590.532 413.156C590.105 413.07 589.668 413.043 589.234 413.076C588.598 413.027 587.972 412.883 587.378 412.647C583.118 411.179 578.498 409.891 574.157 411.119C572.244 411.717 570.455 412.657 568.879 413.895C567.342 414.759 566.193 416.179 565.67 417.864C565.147 419.548 565.288 421.369 566.065 422.953C566.723 424.589 567.195 426.294 567.472 428.036C567.533 429.662 567.348 431.289 566.923 432.859C567.873 433.149 568.844 433.366 569.826 433.509C569.272 435.653 568.291 437.664 566.943 439.421C566.325 440.198 565.658 440.935 564.947 441.627H564.827C562.849 441.998 560.849 442.245 558.84 442.367C556.725 442.367 554.649 441.568 552.544 441.717C551.296 441.858 550.068 442.136 548.882 442.546C543.405 444.153 537.715 444.914 532.008 444.803L531.32 444.873L531.958 440.799C532.301 437.435 533.489 434.212 535.411 431.431C535.777 430.737 536.248 430.104 536.808 429.554C537.447 429.045 538.184 428.675 538.973 428.465C541.015 427.764 543.244 427.846 545.23 428.695C546.796 429.464 548.223 430.912 549.979 430.692C549.944 430.133 549.779 429.59 549.499 429.105C549.218 428.62 548.829 428.206 548.363 427.896C547.42 427.295 546.39 426.844 545.309 426.558C544.731 426.368 544.651 425.39 544.701 424.79C544.791 423.672 546.377 423.432 547.006 422.514C547.634 421.595 547.006 420.117 546.178 419.208C544.766 417.588 542.803 416.552 540.67 416.302C539.609 416.202 538.542 416.395 537.584 416.862C536.626 417.329 535.816 418.051 535.241 418.948C534.817 419.825 534.454 420.729 534.154 421.655C533.352 423.367 532.284 424.941 530.99 426.318C527.997 429.864 525.492 433.698 522.778 437.453C521.87 438.644 521.043 439.895 520.304 441.198C519.118 443.426 518.437 445.888 518.308 448.408C518.259 449.008 518.306 449.611 518.448 450.196C518.381 450.337 518.344 450.49 518.338 450.645C518.369 450.918 518.453 451.182 518.587 451.422C518.721 451.662 518.9 451.873 519.116 452.043C520.643 453.581 522.249 455.169 524.305 455.828C525.584 456.131 526.88 456.354 528.187 456.497C531.34 457.066 534.243 458.894 537.447 458.884C539.652 458.884 541.827 458.005 544.002 458.315C546.996 458.724 549.151 461.161 550.987 463.528C552.547 465.375 553.717 467.518 554.43 469.829C555.138 472.615 554.699 475.751 556.186 478.208C556.561 478.709 556.851 479.269 557.044 479.865C557.075 480.808 556.865 481.743 556.435 482.582C555.178 486.446 557.932 490.571 557.643 494.565C557.503 496.513 556.645 498.35 556.555 500.297C556.405 502.804 557.423 505.61 556.026 507.697C556.874 507.258 557.733 506.869 558.611 506.519C554.42 518.812 550.628 531.485 550.917 544.407C551.137 552.786 552.913 562.013 548.103 568.894C547.42 569.714 546.877 570.642 546.497 571.64C546.118 572.988 546.497 574.416 546.746 575.795C547.634 581.786 544.401 587.688 544.182 593.77C544.157 595.644 544.277 597.517 544.541 599.372L545.719 609.499C544.532 609.757 543.428 610.306 542.506 611.096C541.268 612.095 540.181 613.733 540.759 615.231C541.228 616.439 542.605 617.018 543.873 617.318C545.172 617.464 546.414 617.934 547.485 618.686C547.827 619.065 548.19 619.425 548.572 619.764C549.31 620.165 550.155 620.322 550.987 620.214C552.514 620.154 553.981 620.024 555.537 619.814C555.86 619.801 556.174 619.701 556.445 619.525C556.628 619.323 556.767 619.086 556.854 618.828C556.942 618.571 556.976 618.298 556.954 618.027C557.066 616.507 557.002 614.979 556.765 613.473C556.705 613.183 556.625 612.904 556.545 612.614C557.069 611.331 557.441 609.99 557.653 608.62C557.962 606.622 558.012 604.535 558.142 602.488C558.441 597.275 559.14 592.102 559.938 586.929L560.936 580.278C561.245 578.091 561.564 575.904 561.934 573.717C563.783 561.872 566.661 550.21 570.535 538.865C571.383 536.438 572.83 533.592 575.394 533.522L576.921 536.518C578.917 540.273 580.134 544.437 581.651 548.382C583.647 553.565 582.968 559.617 585.642 564.49C586.081 565.299 586.64 566.068 586.969 566.917C587.442 568.223 587.718 569.593 587.788 570.981L589.554 588.957C590.352 597.036 591.21 605.334 594.832 612.594C595.06 613.062 595.327 613.51 595.631 613.932C595.519 615.141 595.502 616.356 595.581 617.568C595.525 617.782 595.52 618.006 595.565 618.222C595.611 618.439 595.706 618.642 595.844 618.815C595.981 618.988 596.157 619.127 596.357 619.221C596.557 619.315 596.777 619.361 596.998 619.355C598.504 619.555 599.991 619.685 601.538 619.745C602.37 619.853 603.215 619.695 603.953 619.295C604.343 618.961 604.71 618.601 605.05 618.217C606.117 617.465 607.356 616.994 608.652 616.848C609.92 616.559 611.297 615.98 611.766 614.761C612.354 613.263 611.257 611.636 610.019 610.627C609.017 609.75 607.784 609.178 606.467 608.979C605.925 609.011 605.381 608.967 604.851 608.849C604.974 608.191 605.014 607.52 604.97 606.852C604.843 606.067 604.809 605.269 604.871 604.475C605.074 603.674 605.348 602.892 605.689 602.139C606.836 598.603 604.392 595.008 603.534 591.393C602.386 586.58 604.092 581.537 603.783 576.593C603.304 568.834 597.896 561.554 599.333 553.914C600.48 547.803 599.502 541.521 598.415 535.4L594.423 512.621C594.142 510.772 593.657 508.96 592.976 507.218C593.717 507.09 594.445 506.896 595.152 506.639C596.149 504.202 595.98 501.516 595.681 498.899C595.381 496.283 594.683 493.726 594.333 491.13C594.031 489.042 593.858 486.938 593.815 484.829C593.706 482.748 593.853 480.662 594.254 478.617C594.712 476.822 595.337 475.073 596.12 473.394C598.051 468.545 600.387 463.869 603.104 459.413C607.206 459.094 611.177 458.744 615.268 458.415C616.249 458.37 617.224 458.239 618.182 458.025C619.403 457.604 620.645 457.247 621.904 456.957C622.373 456.932 622.837 456.841 623.281 456.687C624.179 456.278 624.728 455.129 625.715 455.089C626.086 455.139 626.462 455.139 626.833 455.089C627.272 454.949 627.492 454.47 627.831 454.091C628.45 453.401 629.457 453.262 630.266 452.812C630.959 452.362 631.472 451.682 631.716 450.892C631.961 450.102 631.92 449.252 631.603 448.488V448.488Z"
        fill="url(#paint0_linear)" />
      <path
        d="M579.695 437.563C585.757 437.563 590.671 432.645 590.671 426.578C590.671 420.511 585.757 415.593 579.695 415.593C573.633 415.593 568.719 420.511 568.719 426.578C568.719 432.645 573.633 437.563 579.695 437.563Z"
        fill="#FBBEBE" />
      <path
        d="M567.022 440.249C565.901 441.63 564.648 442.897 563.28 444.034C569.729 447.882 577.393 449.145 584.734 447.569C584.464 446.82 583.487 446.711 582.798 446.331C581.904 445.696 581.295 444.735 581.102 443.655C580.362 441.023 580.145 438.271 580.463 435.556C580.598 434.897 580.598 434.218 580.463 433.559C580.08 432.57 579.344 431.759 578.398 431.282C576.843 430.312 575.165 429.556 573.408 429.035C571.592 428.495 570.555 428.246 570.485 430.363C570.411 433.943 569.198 437.407 567.022 440.249V440.249Z"
        fill="#FBBEBE" />
      <path
        d="M617.952 447.16L616.835 440.07C616.654 438.643 616.357 437.234 615.947 435.856C615.277 434.066 614.421 432.352 613.392 430.743C613.026 430.051 612.555 429.421 611.995 428.875C611.36 428.367 610.626 427.996 609.84 427.787C607.8 427.088 605.574 427.174 603.593 428.026C602.027 428.785 600.6 430.223 598.854 429.974C598.886 429.415 599.05 428.872 599.33 428.388C599.611 427.904 600.001 427.493 600.47 427.187C601.392 426.588 602.402 426.136 603.464 425.849C604.032 425.67 604.122 424.691 604.072 424.092C603.982 422.983 602.396 422.743 601.767 421.835C601.139 420.926 601.767 419.448 602.585 418.539C603.995 416.925 605.955 415.896 608.084 415.653C609.142 415.547 610.21 415.736 611.168 416.2C612.126 416.664 612.937 417.383 613.512 418.28C613.936 419.152 614.299 420.053 614.599 420.976C615.401 422.68 616.465 424.247 617.753 425.62C620.746 429.145 623.251 432.96 625.955 436.694C626.86 437.885 627.686 439.132 628.43 440.429C629.619 442.641 630.301 445.091 630.425 447.6C630.514 448.371 630.401 449.152 630.096 449.866C629.787 450.386 629.349 450.818 628.824 451.119C628.3 451.419 627.707 451.58 627.102 451.584C625.876 451.554 624.664 451.31 623.52 450.865L619.17 449.397C618.64 449.28 618.155 449.013 617.773 448.628C617.615 448.405 617.545 448.131 617.579 447.859C617.612 447.588 617.745 447.339 617.952 447.16V447.16Z"
        fill="#FBBEBE" />
      <path
        d="M530.99 448.728L532.098 441.638C532.287 440.212 532.587 438.803 532.996 437.423C533.661 435.632 534.518 433.918 535.55 432.31C535.907 431.619 536.376 430.991 536.937 430.453C537.569 429.939 538.304 429.568 539.093 429.364C541.135 428.663 543.364 428.745 545.349 429.594C546.916 430.353 548.343 431.791 550.089 431.541C550.055 430.983 549.891 430.441 549.61 429.957C549.329 429.473 548.94 429.062 548.472 428.755C547.549 428.157 546.54 427.706 545.479 427.417C544.91 427.237 544.82 426.259 544.87 425.659C544.96 424.551 546.537 424.311 547.175 423.403C547.814 422.494 547.175 421.016 546.347 420.117C544.94 418.498 542.979 417.465 540.849 417.221C539.79 417.116 538.723 417.306 537.765 417.769C536.807 418.233 535.996 418.952 535.421 419.847C535 420.72 534.64 421.621 534.343 422.544C533.538 424.246 532.475 425.812 531.19 427.187C528.196 430.713 525.692 434.527 522.978 438.262C522.075 439.452 521.251 440.699 520.513 441.997C519.328 444.211 518.647 446.659 518.517 449.167C518.432 449.943 518.549 450.727 518.856 451.444C519.172 451.969 519.618 452.402 520.152 452.702C520.686 453.001 521.288 453.156 521.9 453.152C523.124 453.126 524.333 452.883 525.472 452.433L529.833 451.005C530.36 450.89 530.842 450.622 531.22 450.236C531.384 450.004 531.452 449.717 531.409 449.436C531.366 449.154 531.216 448.901 530.99 448.728Z"
        fill="#FBBEBE" />
      <path
        d="M610.019 610.587C611.256 611.586 612.344 613.214 611.765 614.702C611.286 615.91 609.919 616.479 608.652 616.779C607.357 616.926 606.12 617.392 605.05 618.137C604.711 618.504 604.348 618.848 603.962 619.165C603.226 619.57 602.38 619.728 601.547 619.615C600.031 619.555 598.554 619.425 597.007 619.225C596.684 619.212 596.37 619.112 596.099 618.936C595.916 618.737 595.777 618.501 595.691 618.245C595.606 617.989 595.574 617.717 595.6 617.448C595.48 615.935 595.54 614.413 595.78 612.914C596.032 611.409 596.805 610.04 597.965 609.049C599.123 608.15 602.635 605.484 603.952 607.192C604.301 607.651 604.162 608.28 604.651 608.66C605.14 609.039 605.908 608.83 606.467 608.899C607.788 609.11 609.021 609.696 610.019 610.587Z"
        fill="#A3BAD2" />
      <path
        d="M542.595 611.106C541.358 612.105 540.271 613.733 540.849 615.221C541.318 616.429 542.685 617.008 543.953 617.298C545.248 617.443 546.486 617.91 547.555 618.656C547.895 619.04 548.262 619.401 548.652 619.735C549.387 620.133 550.228 620.29 551.057 620.184C552.574 620.124 554.051 619.994 555.597 619.784C555.921 619.773 556.235 619.672 556.505 619.495C556.69 619.297 556.831 619.062 556.918 618.805C557.006 618.549 557.039 618.277 557.014 618.007C557.126 616.497 557.063 614.979 556.825 613.483C556.579 611.973 555.805 610.599 554.639 609.608C553.492 608.71 549.98 606.043 548.652 607.751C548.303 608.21 548.443 608.849 547.944 609.219C547.445 609.588 546.697 609.389 546.128 609.459C544.819 609.664 543.595 610.236 542.595 611.106Z"
        fill="#A3BAD2" />
      <path
        d="M559.558 504.552C555.058 517.534 550.687 530.966 551.026 544.737C551.246 553.075 553.022 562.263 548.223 569.103C547.538 569.919 546.995 570.844 546.616 571.84C546.237 573.178 546.616 574.596 546.856 575.974C547.754 581.966 544.531 587.818 544.301 593.87C544.276 595.734 544.396 597.597 544.66 599.442L545.908 610.107C546.327 613.763 551.036 615.26 554.669 615.77C556.377 613.73 557.449 611.233 557.752 608.59C558.061 606.592 558.111 604.525 558.231 602.498C558.54 597.305 559.289 592.152 560.027 587.009L561.025 580.388C561.344 578.211 561.653 576.034 562.023 573.857C563.886 562.101 566.768 550.53 570.634 539.274C571.482 536.848 572.929 534.021 575.484 533.951L577.01 536.887C579.006 540.612 580.213 544.767 581.73 548.691C583.726 553.854 583.037 559.866 585.721 564.729C586.16 565.528 586.719 566.297 587.039 567.136C587.506 568.42 587.782 569.766 587.857 571.131L589.623 588.986C590.421 597.025 591.269 605.284 594.892 612.504C595.25 613.367 595.824 614.124 596.558 614.701C598.035 615.7 600.1 615.191 601.547 614.152C602.691 613.309 603.607 612.194 604.21 610.906C604.813 609.619 605.084 608.201 605 606.782C604.882 605.999 604.848 605.205 604.9 604.415C605.111 603.619 605.385 602.841 605.718 602.088C606.876 598.573 604.431 594.998 603.563 591.403C602.415 586.61 604.122 581.596 603.822 576.673C603.343 568.944 597.945 561.694 599.372 554.094C600.519 548.012 599.541 541.761 598.464 535.669L594.423 513C593.784 509.425 592.826 505.39 589.643 503.643C587.819 502.825 585.818 502.482 583.826 502.644C575.573 502.644 567.69 503.793 559.558 504.552Z"
        fill="#A3BAD2" />
      <path
        d="M631.602 449.297C628.696 449.59 625.77 448.984 623.22 447.56C622.251 446.915 621.218 446.373 620.137 445.942C618.141 445.293 615.946 445.862 613.85 446.172C610.41 446.67 606.904 446.432 603.562 445.472C600.07 444.474 596.578 442.666 592.985 443.475C591.299 443.845 589.772 444.773 588.066 445.043C586.733 445.178 585.387 445.107 584.075 444.833L572.699 443.056C570.132 442.542 567.51 442.354 564.896 442.497C562.917 442.865 560.918 443.115 558.909 443.246C556.804 443.246 554.728 442.447 552.623 442.586C551.379 442.728 550.154 443.006 548.971 443.415C543.506 445.013 537.83 445.771 532.137 445.662C527.598 445.96 523.223 447.478 519.474 450.056C519.216 450.199 518.992 450.398 518.82 450.638C518.647 450.878 518.53 451.153 518.477 451.444C518.51 451.715 518.596 451.976 518.732 452.213C518.867 452.45 519.048 452.657 519.265 452.822C520.782 454.36 522.388 455.938 524.444 456.597C525.719 456.898 527.012 457.118 528.315 457.256C531.458 457.836 534.362 459.643 537.555 459.643C539.761 459.643 541.926 458.764 544.101 459.074C547.095 459.483 549.24 461.9 551.086 464.257C552.638 466.098 553.808 468.23 554.529 470.528C555.227 473.304 554.788 476.42 556.275 478.867C556.648 479.366 556.938 479.923 557.133 480.515C557.165 481.454 556.955 482.386 556.524 483.221C555.267 487.066 558.021 491.13 557.732 495.205C557.592 497.132 556.734 498.97 556.644 500.897C556.504 503.403 557.512 506.19 556.115 508.267C561.506 505.549 567.496 504.24 573.527 504.462C574.531 504.486 575.531 504.58 576.521 504.742C578.445 505.134 580.339 505.661 582.189 506.319C586.36 507.648 590.95 508.596 595.061 507.078C596.059 504.652 595.889 501.975 595.58 499.379C595.27 496.782 594.632 494.226 594.243 491.639C593.94 489.562 593.767 487.467 593.724 485.368C593.615 483.297 593.762 481.221 594.163 479.187C594.62 477.401 595.245 475.662 596.029 473.994C597.954 469.142 600.291 464.465 603.014 460.013C607.105 459.683 611.066 459.334 615.157 459.014C616.134 458.96 617.105 458.83 618.061 458.625C619.279 458.208 620.518 457.855 621.773 457.566C622.243 457.539 622.707 457.445 623.15 457.286C624.048 456.877 624.607 455.738 625.585 455.709C625.956 455.753 626.331 455.753 626.702 455.709C627.141 455.579 627.351 455.089 627.7 454.71C628.319 454.021 629.327 453.881 630.135 453.442C630.814 453.021 631.329 452.381 631.596 451.627C631.862 450.874 631.865 450.052 631.602 449.297V449.297Z"
        fill="#B1D6DE" />
      <path
        d="M581.601 430.543C581.92 430.793 582.307 430.941 582.712 430.966C583.116 430.991 583.519 430.892 583.866 430.682C584.302 430.272 584.595 429.733 584.704 429.145C585.063 427.897 585.353 426.63 585.572 425.35C585.63 424.792 585.8 424.252 586.071 423.762C586.8 422.643 588.376 422.584 589.603 422.074C591.121 421.253 592.376 420.021 593.226 418.519L592.537 418.379L593.186 417.381C593.032 417.287 592.902 417.159 592.806 417.007C592.71 416.854 592.651 416.681 592.633 416.502C592.616 416.323 592.641 416.142 592.705 415.973C592.77 415.805 592.873 415.654 593.006 415.533C592.424 415.223 591.769 415.074 591.11 415.104C591.32 414.724 590.981 414.245 590.571 414.105C590.148 414.017 589.714 413.993 589.284 414.035C588.647 413.983 588.021 413.835 587.428 413.596C583.177 412.138 578.567 410.85 574.237 412.078C572.323 412.67 570.534 413.607 568.958 414.844C567.433 415.701 566.294 417.11 565.772 418.781C565.251 420.451 565.388 422.258 566.154 423.832C566.808 425.455 567.277 427.147 567.551 428.875C567.616 430.497 567.434 432.12 567.012 433.688C568.194 434.068 569.417 434.306 570.654 434.397C571.9 434.493 573.139 434.139 574.147 433.399C575.145 432.54 575.704 431.212 576.522 430.133C576.836 429.658 577.265 429.269 577.769 429.004C578.273 428.738 578.836 428.605 579.406 428.615C580.513 428.785 580.713 429.914 581.601 430.543Z"
        fill="#E5D78C" />
      <path
        d="M552.743 619.165H541.058C540.713 619.235 540.401 619.422 540.178 619.695C539.955 619.968 539.832 620.31 539.832 620.663C539.832 621.016 539.955 621.358 540.178 621.631C540.401 621.904 540.713 622.091 541.058 622.161H543.393V642.004H503.41C503.317 641.848 503.188 641.718 503.033 641.624C502.878 641.53 502.702 641.475 502.522 641.465H490.847C490.501 641.534 490.19 641.721 489.967 641.994C489.743 642.267 489.621 642.61 489.621 642.963C489.621 643.316 489.743 643.658 489.967 643.931C490.19 644.204 490.501 644.391 490.847 644.461H493.182V664.843H454.575C454.541 664.565 454.414 664.308 454.214 664.112C454.015 663.916 453.755 663.794 453.478 663.764H441.813C441.458 663.822 441.135 664.005 440.902 664.279C440.669 664.554 440.541 664.902 440.541 665.262C440.541 665.622 440.669 665.971 440.902 666.245C441.135 666.519 441.458 666.702 441.813 666.76H442.98V687.731H403.735C403.589 687.648 403.424 687.604 403.256 687.602H391.582C391.236 687.671 390.925 687.858 390.701 688.131C390.478 688.405 390.356 688.747 390.356 689.1C390.356 689.453 390.478 689.795 390.701 690.068C390.925 690.341 391.236 690.528 391.582 690.598H392.749V710.57H354.003C353.919 710.373 353.78 710.205 353.603 710.084C353.427 709.964 353.219 709.897 353.005 709.891H341.33C340.985 709.961 340.674 710.148 340.45 710.421C340.227 710.694 340.104 711.036 340.104 711.389C340.104 711.742 340.227 712.084 340.45 712.357C340.674 712.63 340.985 712.818 341.33 712.887H342.498V735.007H606.457V619.165H552.743Z"
        fill="#A3BAD2" />
      <path
        d="M176.646 235.988C175.493 234.465 174.186 233.066 172.744 231.814C172.353 231.473 172.046 231.046 171.847 230.567C171.649 230.087 171.564 229.568 171.6 229.05C171.636 228.532 171.791 228.03 172.054 227.582C172.316 227.135 172.679 226.754 173.114 226.471C173.593 226.161 174.062 225.832 174.531 225.472C179.979 221.328 182.733 215.766 180.667 213.039C178.602 210.313 172.505 211.471 167.057 215.616C166.427 216.084 165.824 216.588 165.251 217.124C164.867 217.469 164.41 217.72 163.913 217.859C163.417 217.997 162.895 218.019 162.389 217.922C161.883 217.826 161.405 217.613 160.995 217.301C160.584 216.99 160.251 216.587 160.022 216.125C159.257 214.623 158.358 213.193 157.338 211.851C152.488 205.46 145.982 202.234 142.799 204.651C139.616 207.067 140.953 214.218 145.793 220.629C146.739 221.882 147.791 223.051 148.936 224.124C149.314 224.493 149.601 224.945 149.773 225.445C149.945 225.945 149.997 226.478 149.925 227.002C149.853 227.526 149.659 228.025 149.359 228.46C149.059 228.895 148.661 229.254 148.198 229.507C142.21 232.932 138.828 238.095 140.524 241.061C142.22 244.027 148.427 243.657 154.364 240.242C155.284 239.708 156.171 239.117 157.018 238.475C157.418 238.17 157.88 237.959 158.371 237.857C158.862 237.754 159.37 237.762 159.858 237.881C160.345 238 160.8 238.226 161.189 238.542C161.579 238.859 161.892 239.259 162.107 239.713C162.917 241.483 163.921 243.158 165.101 244.706C169.941 251.097 176.456 254.323 179.64 251.906C182.823 249.49 181.486 242.389 176.646 235.988Z"
        fill="#B1D6DE" />
      <path
        d="M883.438 408.562C884.563 407.02 885.523 405.363 886.301 403.619C886.511 403.145 886.828 402.727 887.227 402.397C887.626 402.067 888.097 401.834 888.601 401.718C889.106 401.602 889.63 401.605 890.134 401.727C890.637 401.849 891.105 402.086 891.5 402.421C891.939 402.78 892.398 403.13 892.867 403.479C898.415 407.474 904.542 408.472 906.538 405.726C908.533 402.98 905.659 397.457 900.111 393.443C899.446 392.97 898.781 392.541 898.116 392.155C897.675 391.887 897.302 391.52 897.026 391.084C896.75 390.648 896.579 390.153 896.526 389.64C896.472 389.126 896.539 388.607 896.719 388.124C896.9 387.64 897.19 387.205 897.567 386.852C898.78 385.685 899.883 384.408 900.86 383.037C905.56 376.536 906.737 369.366 903.504 367.059C900.271 364.752 893.825 368.058 889.125 374.599C888.208 375.861 887.397 377.197 886.7 378.593C886.459 379.063 886.111 379.47 885.683 379.781C885.256 380.091 884.762 380.297 884.24 380.382C883.719 380.466 883.185 380.427 882.682 380.267C882.178 380.107 881.72 379.832 881.342 379.462V379.462C876.353 374.778 870.366 373.001 868.061 375.467C865.756 377.934 867.891 383.786 872.89 388.45C873.667 389.169 874.491 389.836 875.355 390.447C875.761 390.741 876.097 391.123 876.337 391.564C876.578 392.004 876.717 392.493 876.745 392.995C876.772 393.496 876.688 393.997 876.498 394.462C876.307 394.926 876.016 395.342 875.644 395.68C874.181 396.993 872.865 398.463 871.723 400.064C867.023 406.565 865.846 413.735 869.089 416.042C872.332 418.349 878.738 415.073 883.438 408.562Z"
        fill="#B1D6DE" />
      <path
        d="M888.546 745.673C907.173 745.673 922.273 742.767 922.273 739.182C922.273 735.597 907.173 732.69 888.546 732.69C869.919 732.69 854.819 735.597 854.819 739.182C854.819 742.767 869.919 745.673 888.546 745.673Z"
        fill="#B1D6DE" />
      <path
        d="M887.988 741.568C890.159 741.568 891.92 739.266 891.92 736.425C891.92 733.585 890.159 731.282 887.988 731.282C885.817 731.282 884.057 733.585 884.057 736.425C884.057 739.266 885.817 741.568 887.988 741.568Z"
        fill="#A3BAD2" />
      <path
        d="M887.988 735.277C890.159 735.277 891.92 732.974 891.92 730.134C891.92 727.293 890.159 724.991 887.988 724.991C885.817 724.991 884.057 727.293 884.057 730.134C884.057 732.974 885.817 735.277 887.988 735.277Z"
        fill="#A3BAD2" />
      <path
        d="M887.988 728.995C890.159 728.995 891.92 726.693 891.92 723.852C891.92 721.012 890.159 718.709 887.988 718.709C885.817 718.709 884.057 721.012 884.057 723.852C884.057 726.693 885.817 728.995 887.988 728.995Z"
        fill="#A3BAD2" />
      <path
        d="M887.988 722.704C890.159 722.704 891.92 720.401 891.92 717.561C891.92 714.721 890.159 712.418 887.988 712.418C885.817 712.418 884.057 714.721 884.057 717.561C884.057 720.401 885.817 722.704 887.988 722.704Z"
        fill="#A3BAD2" />
      <path
        d="M887.988 716.412C890.159 716.412 891.92 714.11 891.92 711.269C891.92 708.429 890.159 706.126 887.988 706.126C885.817 706.126 884.057 708.429 884.057 711.269C884.057 714.11 885.817 716.412 887.988 716.412Z"
        fill="#A3BAD2" />
      <path
        d="M887.988 710.131C890.159 710.131 891.92 707.829 891.92 704.988C891.92 702.148 890.159 699.845 887.988 699.845C885.817 699.845 884.057 702.148 884.057 704.988C884.057 707.829 885.817 710.131 887.988 710.131Z"
        fill="#A3BAD2" />
      <path
        d="M887.988 703.84C890.159 703.84 891.92 701.537 891.92 698.697C891.92 695.856 890.159 693.554 887.988 693.554C885.817 693.554 884.057 695.856 884.057 698.697C884.057 701.537 885.817 703.84 887.988 703.84Z"
        fill="#A3BAD2" />
      <path
        d="M902.686 655.666C903.218 654.979 903.705 654.259 904.143 653.509L893.835 651.811L904.991 651.901C906.064 649.57 906.65 647.044 906.712 644.478C906.774 641.912 906.31 639.361 905.35 636.981L890.382 644.751L904.193 634.595C902.894 632.368 901.151 630.432 899.074 628.907C896.997 627.382 894.629 626.301 892.116 625.729C889.604 625.158 887.002 625.11 884.47 625.587C881.938 626.064 879.531 627.056 877.398 628.502C875.266 629.948 873.452 631.818 872.071 633.994C870.69 636.171 869.771 638.608 869.369 641.155C868.968 643.702 869.094 646.304 869.739 648.8C870.384 651.296 871.535 653.633 873.12 655.666C872.286 656.732 871.567 657.884 870.974 659.101L884.375 666.092L870.086 661.298C869.081 664.262 868.828 667.429 869.351 670.515C869.873 673.6 871.155 676.507 873.08 678.974C870.899 681.751 869.543 685.086 869.166 688.598C868.789 692.11 869.408 695.657 870.95 698.834C872.493 702.011 874.897 704.689 877.889 706.563C880.88 708.437 884.339 709.431 887.868 709.431C891.397 709.431 894.855 708.437 897.847 706.563C900.839 704.689 903.243 702.011 904.786 698.834C906.328 695.657 906.946 692.11 906.57 688.598C906.193 685.086 904.837 681.751 902.656 678.974C905.261 675.654 906.677 671.556 906.677 667.335C906.677 663.114 905.261 659.015 902.656 655.696L902.686 655.666Z"
        fill="#B1D6DE" />
      <path opacity="0.1"
        d="M869.089 667.299C869.076 671.519 870.482 675.62 873.08 678.944C870.899 681.721 869.543 685.056 869.166 688.568C868.789 692.08 869.408 695.627 870.95 698.804C872.493 701.981 874.897 704.659 877.889 706.533C880.88 708.407 884.339 709.401 887.868 709.401C891.397 709.401 894.855 708.407 897.847 706.533C900.839 704.659 903.243 701.981 904.786 698.804C906.328 695.627 906.946 692.08 906.57 688.568C906.193 685.056 904.837 681.721 902.656 678.944C905.2 675.738 869.089 665.192 869.089 667.299Z"
        fill="black" />
      <path
        d="M273.876 743.665C282.308 743.665 289.143 742.351 289.143 740.729C289.143 739.108 282.308 737.793 273.876 737.793C265.445 737.793 258.609 739.108 258.609 740.729C258.609 742.351 265.445 743.665 273.876 743.665Z"
        fill="#B1D6DE" />
      <path
        d="M273.627 741.808C274.608 741.808 275.403 740.766 275.403 739.481C275.403 738.196 274.608 737.154 273.627 737.154C272.646 737.154 271.851 738.196 271.851 739.481C271.851 740.766 272.646 741.808 273.627 741.808Z"
        fill="#A3BAD2" />
      <path
        d="M273.627 738.962C274.608 738.962 275.403 737.92 275.403 736.635C275.403 735.35 274.608 734.308 273.627 734.308C272.646 734.308 271.851 735.35 271.851 736.635C271.851 737.92 272.646 738.962 273.627 738.962Z"
        fill="#A3BAD2" />
      <path
        d="M273.627 736.116C274.608 736.116 275.403 735.074 275.403 733.789C275.403 732.504 274.608 731.462 273.627 731.462C272.646 731.462 271.851 732.504 271.851 733.789C271.851 735.074 272.646 736.116 273.627 736.116Z"
        fill="#A3BAD2" />
      <path
        d="M273.627 733.269C274.608 733.269 275.403 732.228 275.403 730.943C275.403 729.657 274.608 728.616 273.627 728.616C272.646 728.616 271.851 729.657 271.851 730.943C271.851 732.228 272.646 733.269 273.627 733.269Z"
        fill="#A3BAD2" />
      <path
        d="M273.627 730.424C274.608 730.424 275.403 729.382 275.403 728.097C275.403 726.812 274.608 725.77 273.627 725.77C272.646 725.77 271.851 726.812 271.851 728.097C271.851 729.382 272.646 730.424 273.627 730.424Z"
        fill="#A3BAD2" />
      <path
        d="M273.627 727.578C274.608 727.578 275.403 726.536 275.403 725.251C275.403 723.966 274.608 722.924 273.627 722.924C272.646 722.924 271.851 723.966 271.851 725.251C271.851 726.536 272.646 727.578 273.627 727.578Z"
        fill="#A3BAD2" />
      <path
        d="M273.627 724.731C274.608 724.731 275.403 723.69 275.403 722.404C275.403 721.119 274.608 720.078 273.627 720.078C272.646 720.078 271.851 721.119 271.851 722.404C271.851 723.69 272.646 724.731 273.627 724.731Z"
        fill="#A3BAD2" />
      <path
        d="M280.272 702.921C280.52 702.605 280.743 702.271 280.941 701.922L276.271 701.153H281.32C281.833 700.035 282.099 698.819 282.098 697.588C282.101 696.496 281.89 695.414 281.48 694.403L274.704 697.918L280.951 693.324C280.363 692.316 279.575 691.44 278.634 690.75C277.694 690.06 276.623 689.571 275.486 689.312C274.349 689.054 273.171 689.032 272.025 689.248C270.879 689.464 269.79 689.913 268.825 690.568C267.86 691.222 267.039 692.068 266.414 693.054C265.79 694.039 265.374 695.142 265.192 696.294C265.011 697.447 265.068 698.625 265.36 699.754C265.653 700.884 266.174 701.941 266.891 702.861C266.504 703.34 266.169 703.859 265.893 704.409L271.95 707.565L265.484 705.388C265.033 706.729 264.923 708.162 265.164 709.556C265.404 710.951 265.987 712.264 266.861 713.377C265.87 714.634 265.253 716.145 265.08 717.738C264.907 719.33 265.186 720.938 265.884 722.379C266.582 723.82 267.672 725.036 269.028 725.886C270.384 726.736 271.952 727.187 273.552 727.187C275.152 727.187 276.72 726.736 278.076 725.886C279.432 725.036 280.522 723.82 281.22 722.379C281.918 720.938 282.196 719.33 282.024 717.738C281.851 716.145 281.233 714.634 280.242 713.377C281.425 711.876 282.068 710.02 282.068 708.109C282.068 706.198 281.425 704.342 280.242 702.841L280.272 702.921Z"
        fill="#B1D6DE" />
      <path opacity="0.1"
        d="M265.066 708.184C265.065 710.097 265.709 711.954 266.892 713.457C265.901 714.714 265.283 716.225 265.11 717.817C264.938 719.409 265.216 721.018 265.914 722.459C266.612 723.9 267.702 725.115 269.058 725.966C270.414 726.816 271.982 727.267 273.582 727.267C275.182 727.267 276.75 726.816 278.106 725.966C279.462 725.115 280.552 723.9 281.25 722.459C281.948 721.018 282.227 719.409 282.054 717.817C281.881 716.225 281.264 714.714 280.273 713.457C281.42 712.039 265.066 707.225 265.066 708.184Z"
        fill="black" />
    </g>
  </g>
  <defs>
    <filter id="filter0_d" x="0" y="0" width="1173" height="763" filterUnits="userSpaceOnUse"
      color-interpolation-filters="sRGB">
      <feFlood flood-opacity="0" result="BackgroundImageFix" />
      <feColorMatrix in="SourceAlpha" type="matrix" values="0 0 0 0 0 0 0 0 0 0 0 0 0 0 0 0 0 0 127 0" />
      <feOffset dy="4" />
      <feGaussianBlur stdDeviation="2" />
      <feColorMatrix type="matrix" values="0 0 0 0 0 0 0 0 0 0 0 0 0 0 0 0 0 0 0.25 0" />
      <feBlend mode="normal" in2="BackgroundImageFix" result="effect1_dropShadow" />
      <feBlend mode="normal" in="SourceGraphic" in2="effect1_dropShadow" result="shape" />
    </filter>
    <linearGradient id="paint0_linear" x1="67365.5" y1="145683" x2="67365.5" y2="101690" gradientUnits="userSpaceOnUse">
      <stop stop-color="white" stop-opacity="0.25" />
      <stop offset="0.54" stop-color="#808080" stop-opacity="0.12" />
      <stop offset="1" stop-color="#808080" stop-opacity="0.1" />
    </linearGradient>
    <clipPath id="clip0">
      <rect width="1165" height="755" fill="white" transform="translate(4)" />
    </clipPath>
  </defs>
</svg>