<svg width="1042" height="555" viewBox="0 0 1042 555" fill="none" xmlns="http://www.w3.org/2000/svg">
  <g clip-path="url(#clip0)">
    <path
      d="M961.469 438.175C960.309 440.675 959.153 443.142 957.999 445.575C956.199 449.355 954.423 453.062 952.669 456.695C951.889 458.305 951.109 459.885 950.349 461.465C941.749 479.035 933.719 494.575 926.899 507.355C920.711 518.935 911.522 528.638 900.296 535.446C889.069 542.255 876.218 545.919 863.089 546.055L711.439 547.705H709.839L696.839 547.845L685.719 547.965L651.619 548.335H650.239L632.879 548.525H632.349L525.349 549.685L429.839 550.685L418.729 550.805L349.729 551.555H349.649L304.899 552.035H304.419L162.919 553.565L120.589 554.025C111.556 554.127 102.561 552.839 93.9193 550.205C78.8813 545.663 65.3666 537.106 54.8292 525.455C36.6492 505.425 23.3992 482.055 14.4992 456.695C13.2126 453.035 12.0126 449.328 10.8992 445.575C-19.9108 341.425 17.6493 207.055 85.2493 117.135C88.0826 113.375 90.9626 109.708 93.8893 106.135L93.9592 106.055C114.749 80.5351 138.059 59.2151 162.889 44.0551C206.889 17.1451 255.639 9.56509 303.589 32.1551C344.159 51.2751 382.039 60.2651 418.759 62.7051C422.469 62.9451 426.179 63.1251 429.869 63.2351C514.099 65.8851 593.039 35.5351 685.739 15.9451C689.429 15.1651 693.129 14.3951 696.859 13.6651C762.989 0.505091 836.349 -6.43491 923.589 8.15509C932.653 9.63576 941.596 11.7747 950.349 14.5551C954.196 15.7951 957.903 17.1284 961.469 18.5551C1003.11 35.4951 1025.82 66.7951 1035.47 106.015C1036.38 109.655 1037.17 113.358 1037.84 117.125C1054.95 211.465 1004.84 345.285 961.469 438.175Z"
      fill="white" />
    <g opacity="0.1">
      <path opacity="0.1"
        d="M224.033 108.509V551.785L192.831 552.185C186.172 552.273 179.542 551.153 173.172 548.862V162.437H173.224C188.548 140.214 205.73 121.669 224.033 108.509Z"
        fill="white" />
      <path opacity="0.1"
        d="M869.001 172.075H166.805C168.893 168.805 171.016 165.615 173.173 162.507V162.438H867.254C867.927 165.586 868.509 168.799 869.001 172.075Z"
        fill="white" />
      <path opacity="0.1"
        d="M812.671 86.3371V457.749H810.114C808.787 461.037 807.477 464.261 806.185 467.421C805.61 468.821 805.035 470.196 804.475 471.57V82.823C807.31 83.9016 810.042 85.0729 812.671 86.3371Z"
        fill="white" />
      <path opacity="0.1"
        d="M617.625 82.0491V546.748L609.428 546.853V84.0323C612.148 83.3538 614.875 82.684 617.625 82.0491Z"
        fill="white" />
      <path opacity="0.1"
        d="M420.826 125.166V549.271L412.637 549.375V124.705C415.371 124.914 418.106 125.035 420.826 125.166Z"
        fill="white" />
      <path opacity="0.1"
        d="M810.112 457.758C808.786 461.045 807.476 464.27 806.184 467.43H114.654C113.705 464.246 112.821 461.022 112 457.758H810.112Z"
        fill="white" />
    </g>
    <path d="M236.59 263.844H217.59V321.504H236.59V263.844Z" fill="#527093" />
    <path d="M747.918 260.844H728.918V321.844H747.918V260.844Z" fill="#527093" />
    <path
      d="M869.09 531.664V544.664L717.17 546.064L715.55 546.094L657.81 546.624L656.43 546.644L638.88 546.794H638.36L531.38 547.784L355.77 549.414H355.62L310.97 549.834L310.49 549.844L112.09 551.664V536.664L158.74 508.664L252.34 507.884L254.34 507.874L255 507.864L257 507.834L301.94 507.464L303.95 507.454L304.59 507.444L306.59 507.434L321 507.314L321.38 507.304L356.93 507.004H357.22L634.62 504.664L641.41 504.614H642.09L647.27 504.564L684.92 504.254L686.92 504.224L688.77 504.204H689.73L701.44 504.114L703.76 504.084L706.87 504.064L716.62 503.974L732.09 503.844L734.09 503.824L737.57 503.804H738.22L812.93 503.164L869.09 531.664Z"
      fill="#364F6B" />
    <path opacity="0.2"
      d="M869.09 531.664V544.664L717.17 546.064L715.55 546.094L657.81 546.624L656.43 546.644L638.88 546.794H638.36L531.38 547.784L355.77 549.414H355.62L310.97 549.834L310.49 549.844L112.09 551.664V536.664L158.74 508.664L252.34 507.884L254.34 507.874L255 507.864L257 507.834L301.94 507.464L303.95 507.454L304.59 507.444L306.59 507.434L321 507.314L321.38 507.304L356.93 507.004H357.22L634.62 504.664L641.41 504.614H642.09L647.27 504.564L684.92 504.254L686.92 504.224L688.77 504.204H689.73L701.44 504.114L703.76 504.084L706.87 504.064L716.62 503.974L732.09 503.844L734.09 503.824L737.57 503.804H738.22L812.93 503.164L869.09 531.664Z"
      fill="black" />
    <path
      d="M302.09 481.674V506.164C302.091 507.324 301.762 508.46 301.142 509.441C300.523 510.422 299.638 511.206 298.59 511.704C297.81 512.082 296.957 512.287 296.09 512.304L261.19 513.044C260.258 513.066 259.333 512.871 258.49 512.474C257.424 511.985 256.52 511.201 255.887 510.213C255.255 509.226 254.919 508.077 254.92 506.904V481.674H302.09Z"
      fill="#527093" />
    <path opacity="0.1"
      d="M302.09 481.674V506.164C302.091 507.324 301.762 508.46 301.142 509.441C300.523 510.422 299.638 511.206 298.59 511.704C297.81 512.082 296.957 512.287 296.09 512.304L261.19 513.044C260.258 513.066 259.333 512.871 258.49 512.474C257.424 511.985 256.52 511.201 255.887 510.213C255.255 509.226 254.919 508.077 254.92 506.904V481.674H302.09Z"
      fill="black" />
    <path
      d="M304.088 481.674V506.164C304.089 507.324 303.76 508.46 303.14 509.441C302.521 510.422 301.636 511.206 300.588 511.704C299.808 512.082 298.955 512.287 298.088 512.304L263.188 513.044C262.256 513.066 261.331 512.871 260.488 512.474C259.422 511.985 258.518 511.201 257.885 510.213C257.253 509.226 256.917 508.077 256.918 506.904V481.674H304.088Z"
      fill="#527093" />
    <path d="M734.09 481.674H686.92V513.174H734.09V481.674Z" fill="#527093" />
    <path opacity="0.1" d="M734.09 481.674H686.92V513.174H734.09V481.674Z" fill="black" />
    <path d="M732.088 481.674H684.918V513.174H732.088V481.674Z" fill="#527093" />
    <path opacity="0.1" d="M236.59 263.834V269.564L217.59 269.074V263.834H236.59Z" fill="black" />
    <path
      d="M361.649 102.414L338.819 266.414C338.674 267.462 338.148 268.419 337.342 269.104C336.536 269.788 335.506 270.151 334.449 270.124L151.649 265.384L148.179 265.294C147.574 265.28 146.98 265.138 146.434 264.879C145.888 264.619 145.403 264.248 145.011 263.788C144.618 263.329 144.327 262.792 144.156 262.212C143.985 261.632 143.938 261.023 144.019 260.424L169.649 88.7441C169.814 87.6807 170.372 86.7178 171.212 86.0458C172.053 85.3737 173.115 85.0413 174.189 85.1141L357.649 97.5341C358.24 97.5684 358.819 97.725 359.347 97.9941C359.876 98.2631 360.342 98.6388 360.718 99.0974C361.094 99.5559 361.371 100.087 361.531 100.658C361.691 101.229 361.731 101.827 361.649 102.414Z"
      fill="#364F6B" />
    <path d="M181.92 97.1741L162.59 248.504L330.59 253.834L351.25 107.834L181.92 97.1741Z" fill="#D4DFEC" />
    <path
      d="M589.93 94.8342H395.92C392.977 94.8342 390.59 97.2206 390.59 100.164V262.834C390.59 265.778 392.977 268.164 395.92 268.164H589.93C592.874 268.164 595.26 265.778 595.26 262.834V100.164C595.26 97.2206 592.874 94.8342 589.93 94.8342Z"
      fill="#364F6B" />
    <path d="M586.25 106.504H400.25V250.834H586.25V106.504Z" fill="#D4DFEC" />
    <path opacity="0.1" d="M747.918 260.834V264.624L728.918 265.014V260.834H747.918Z" fill="black" />
    <path
      d="M833.648 257.634C833.675 258.049 833.618 258.464 833.481 258.856C833.343 259.248 833.128 259.607 832.848 259.914C832.567 260.22 832.229 260.467 831.851 260.639C831.473 260.811 831.063 260.904 830.648 260.914L643.448 264.784C642.671 264.8 641.916 264.522 641.335 264.004C640.755 263.487 640.391 262.769 640.318 261.994L624.228 94.7142C624.189 94.2992 624.234 93.8805 624.36 93.4834C624.487 93.0862 624.694 92.719 624.967 92.4039C625.24 92.0888 625.574 91.8324 625.949 91.6503C626.324 91.4681 626.732 91.364 627.148 91.3443L812.929 82.1043L814.929 82.0043C815.724 81.9624 816.504 82.231 817.104 82.7534C817.705 83.2758 818.079 84.0111 818.148 84.8043L833.648 257.634Z"
      fill="#364F6B" />
    <path d="M634.92 101.174L804.59 92.8342L818.92 244.834L650.59 248.834L634.92 101.174Z" fill="#D4DFEC" />
    <path opacity="0.1"
      d="M833.65 257.634C833.677 258.049 833.62 258.464 833.483 258.856C833.345 259.248 833.13 259.607 832.849 259.914C832.569 260.22 832.23 260.467 831.852 260.639C831.474 260.811 831.065 260.904 830.65 260.914L812.93 82.1043L814.93 82.0043C815.725 81.9624 816.505 82.231 817.106 82.7534C817.707 83.2758 818.081 84.0111 818.15 84.8043L833.65 257.634Z"
      fill="black" />
    <path opacity="0.1"
      d="M174.219 85.1042L151.649 265.384L148.179 265.294C147.574 265.28 146.98 265.138 146.434 264.879C145.888 264.619 145.403 264.248 145.011 263.788C144.618 263.329 144.327 262.792 144.156 262.212C143.985 261.632 143.938 261.023 144.019 260.424L169.649 88.7442C169.812 87.6734 170.373 86.7037 171.22 86.0288C172.068 85.354 173.138 85.0238 174.219 85.1042Z"
      fill="black" />
    <path opacity="0.1" d="M236.59 304.424H217.59V321.504H236.59V304.424Z" fill="black" />
    <path opacity="0.1" d="M304.088 481.664V486.634L256.918 487.894V481.664H304.088Z" fill="black" />
    <path
      d="M387.34 310.374V478.574C387.328 479.601 386.922 480.583 386.205 481.319C385.488 482.054 384.516 482.486 383.49 482.524L191.84 487.624H191.79C190.747 487.611 189.75 487.191 189.012 486.453C188.274 485.715 187.853 484.718 187.84 483.674V310.374C187.853 309.33 188.274 308.333 189.012 307.595C189.75 306.857 190.747 306.437 191.79 306.424H383.39C384.434 306.437 385.431 306.857 386.169 307.595C386.907 308.333 387.327 309.33 387.34 310.374Z"
      fill="#364F6B" />
    <path opacity="0.1"
      d="M191.84 306.424V487.624H191.79C190.747 487.611 189.75 487.191 189.012 486.453C188.274 485.715 187.853 484.718 187.84 483.674V310.374C187.853 309.33 188.274 308.333 189.012 307.595C189.75 306.857 190.747 306.437 191.79 306.424H191.84Z"
      fill="black" />
    <path d="M200.59 317.164H378.09V465.414L200.59 469.414V317.164Z" fill="#D4DFEC" />
    <path opacity="0.1" d="M747.918 304.424H728.918V321.844H747.918V304.424Z" fill="black" />
    <path opacity="0.1" d="M732.088 481.664V488.074L684.918 486.814V481.664H732.088Z" fill="black" />
    <path
      d="M794.339 310.374V483.674C794.326 484.726 793.899 485.731 793.15 486.47C792.401 487.21 791.392 487.624 790.339 487.624L598.649 482.524C597.623 482.486 596.651 482.054 595.935 481.319C595.218 480.583 594.811 479.601 594.799 478.574V310.374C594.812 309.33 595.233 308.333 595.971 307.595C596.709 306.857 597.706 306.437 598.749 306.424H790.349C791.4 306.427 792.407 306.842 793.154 307.581C793.9 308.321 794.326 309.324 794.339 310.374Z"
      fill="#364F6B" />
    <path opacity="0.1"
      d="M794.34 310.374V483.674C794.327 484.726 793.9 485.731 793.151 486.47C792.403 487.21 791.393 487.624 790.34 487.624V306.424C791.393 306.424 792.403 306.839 793.151 307.578C793.9 308.317 794.327 309.322 794.34 310.374Z"
      fill="black" />
    <path d="M781.59 317.164H604.09V465.414L781.59 469.414V317.164Z" fill="#D4DFEC" />
    <path
      d="M589.84 310.374V478.574C589.828 479.601 589.422 480.583 588.705 481.319C587.988 482.054 587.016 482.486 585.99 482.524L394.34 487.624C393.288 487.624 392.278 487.21 391.529 486.47C390.781 485.731 390.354 484.726 390.34 483.674V310.374C390.353 309.33 390.774 308.333 391.512 307.595C392.25 306.857 393.247 306.437 394.29 306.424H585.89C586.934 306.437 587.931 306.857 588.669 307.595C589.407 308.333 589.827 309.33 589.84 310.374Z"
      fill="#364F6B" />
    <path d="M403.09 317.164H580.59V465.414L403.09 469.414V317.164Z" fill="#D4DFEC" />
    <path opacity="0.1"
      d="M869.09 531.664V544.664L717.17 546.064L715.55 546.094L657.81 546.624L656.43 546.644L638.88 546.794H638.36L531.38 547.784L355.77 549.414H355.62L310.97 549.834L310.49 549.844L112.09 551.664V536.664L314.6 535.334H315.08L356.07 535.054H356.26L639.34 533.184H639.63L639.8 533.174H640.27L645.06 533.144H646.52L721.01 532.644L725.41 532.624L726.39 532.614L869.09 531.664Z"
      fill="black" />
    <path
      d="M493.248 321.504C521.597 321.504 544.578 298.523 544.578 270.174C544.578 241.825 521.597 218.844 493.248 218.844C464.899 218.844 441.918 241.825 441.918 270.174C441.918 298.523 464.899 321.504 493.248 321.504Z"
      fill="#FBBEBE" />
    <path
      d="M544.589 375.174C544.589 375.174 445.089 387.174 454.589 375.174C458.029 370.834 458.979 357.974 458.789 343.324C458.729 338.874 458.569 334.264 458.339 329.674C457.239 307.674 454.589 286.174 454.589 286.174C454.589 286.174 541.589 245.174 531.589 277.674C527.589 290.804 528.899 309.244 531.939 326.554C532.829 331.604 533.859 336.554 534.939 341.254C537.575 352.718 540.796 364.04 544.589 375.174Z"
      fill="#FBBEBE" />
    <path opacity="0.1"
      d="M544.589 375.174C544.589 375.174 445.089 387.174 454.589 375.174C458.029 370.834 458.979 357.974 458.789 343.324C473.959 336.844 493.259 341.674 493.259 341.674C513.579 337.624 526.609 338.414 534.939 341.254C537.575 352.718 540.796 364.04 544.589 375.174Z"
      fill="black" />
    <path opacity="0.1" d="M372.09 432.674C372.09 432.674 429.09 462.174 449.59 458.674L372.09 432.674Z" fill="black" />
    <path opacity="0.1"
      d="M488.09 420.674C488.09 420.674 543.59 438.674 562.09 441.174C580.59 443.674 488.09 420.674 488.09 420.674Z"
      fill="black" />
    <path opacity="0.1"
      d="M549.649 362.754C520.649 368.094 466.049 366.944 442.449 366.134C451.099 335.134 493.279 345.674 493.279 345.674C545.489 335.254 549.489 356.874 549.649 362.754Z"
      fill="black" />
    <path
      d="M549.649 360.754C520.649 366.094 466.049 364.944 442.449 364.134C451.099 333.134 493.279 343.674 493.279 343.674C545.489 333.254 549.489 354.874 549.649 360.754Z"
      fill="white" />
    <path
      d="M703.59 497.424C703.59 497.424 737.75 492.174 738.42 507.174C739.09 522.174 721 532.654 721 532.654L703.59 497.424Z"
      fill="#FBBEBE" />
    <path opacity="0.1"
      d="M531.939 326.554C530.47 327.211 528.968 327.792 527.439 328.294C516.659 332.014 505.789 335.764 494.439 337.124C483.089 338.484 471.179 337.284 461.279 331.624C460.24 331.037 459.238 330.386 458.279 329.674C457.179 307.674 454.529 286.174 454.529 286.174C454.529 286.174 541.529 245.174 531.529 277.674C527.549 290.804 528.899 309.244 531.939 326.554Z"
      fill="black" />
    <path opacity="0.1"
      d="M643.019 482.274L642.919 483.704V483.804L642.749 486.104L641.419 504.614L639.809 526.914L639.349 533.194L638.349 546.634V546.804L531.349 547.804L355.759 549.704V550.544H355.619V549.704V549.424L356.069 535.064L356.929 507.004L357.669 483.214L357.739 480.844C357.783 479.414 358.118 478.007 358.723 476.71C359.329 475.414 360.192 474.254 361.261 473.302C362.33 472.35 363.582 471.627 364.939 471.175C366.297 470.723 367.733 470.552 369.159 470.674C373.879 471.074 380.009 471.564 387.339 472.084L390.339 472.304C432.669 475.244 510.899 479.044 589.839 474.304C591.499 474.214 593.169 474.114 594.839 473.994C607.079 473.224 619.309 472.234 631.419 470.994C632.95 470.834 634.497 471.011 635.952 471.513C637.408 472.015 638.735 472.831 639.841 473.901C640.947 474.972 641.804 476.272 642.353 477.71C642.903 479.148 643.13 480.689 643.019 482.224V482.274Z"
      fill="black" />
    <path
      d="M355.729 550.544V549.704L531.35 547.794L638.35 546.794H638.65V546.624L639.65 533.184L640.079 527.184L641.72 504.574L643.009 486.674V486.234C643.069 485.409 643.032 484.58 642.9 483.764C642.905 483.731 642.905 483.697 642.9 483.664C642.625 481.976 641.938 480.383 640.9 479.024C639.798 477.612 638.356 476.504 636.708 475.804C635.059 475.104 633.26 474.836 631.48 475.024C619.37 476.264 607.14 477.254 594.9 478.024C593.23 478.144 591.56 478.244 589.9 478.334C510.96 483.024 432.73 479.224 390.4 476.334L387.4 476.114C380.07 475.594 373.94 475.114 369.22 474.704C366.623 474.485 364.037 475.236 361.962 476.811C359.886 478.386 358.467 480.674 357.979 483.234C357.879 483.776 357.818 484.324 357.799 484.874L357.12 507.034L356.19 535.104L355.75 549.464V549.744V550.584L355.729 550.544Z"
      fill="#527093" />
    <path opacity="0.1"
      d="M643.32 489.284L642.09 504.614L640.26 527.464L639.8 533.184L638.8 545.994L638.74 546.634V546.804L638.59 548.284L638.7 546.804H638.41L531.41 547.804L355.76 549.704V549.424L356.25 535.064L357.25 507.004L357.89 488.354C357.922 487.293 358.218 486.257 358.753 485.34C359.287 484.423 360.043 483.654 360.95 483.104C362.083 482.41 363.407 482.095 364.73 482.204C366.83 482.374 369.41 482.574 372.42 482.794C377.31 483.154 383.34 483.574 390.36 484.014C403.36 484.834 419.67 485.714 438.36 486.434C490.36 488.434 560.56 489.104 627.24 483.264C630.24 483.004 633.34 482.714 636.37 482.424C637.57 482.304 638.778 482.534 639.85 483.084C640.154 483.235 640.442 483.416 640.71 483.624C641.581 484.255 642.27 485.103 642.71 486.084C642.812 486.279 642.896 486.483 642.96 486.694C643.261 487.523 643.383 488.405 643.32 489.284Z"
      fill="black" />
    <path opacity="0.1"
      d="M304.088 502.974V506.164C304.089 507.324 303.76 508.46 303.14 509.441C302.521 510.422 301.636 511.206 300.588 511.704L260.488 512.474C259.422 511.985 258.518 511.201 257.885 510.213C257.253 509.226 256.917 508.077 256.918 506.904V503.904L304.088 502.974Z"
      fill="black" />
    <path d="M304.59 513.584L252.34 514.584V505.914L304.59 504.914V513.584Z" fill="#527093" />
    <path opacity="0.1" d="M304.59 513.584L252.34 514.584V505.914L304.59 504.914V513.584Z" fill="black" />
    <path d="M306.59 513.584L254.34 514.584V505.914L306.59 504.914V513.584Z" fill="#527093" />
    <g opacity="0.1">
      <path opacity="0.1"
        d="M479.578 186.664C478.601 185.395 477.952 183.904 477.688 182.324C477.447 183.869 477.591 185.449 478.108 186.924C478.605 186.878 479.096 186.791 479.578 186.664Z"
        fill="black" />
      <path opacity="0.1"
        d="M466.878 193.304C466.69 192.078 466.566 190.843 466.508 189.604C466.508 190.834 466.508 192.074 466.508 193.314L466.878 193.304Z"
        fill="black" />
      <path opacity="0.1"
        d="M548.379 226.674C548.435 225.783 548.555 224.898 548.739 224.024C549.212 222.503 549.481 220.926 549.539 219.334C549.517 218.977 549.463 218.622 549.379 218.274C549.209 219.194 548.939 220.114 548.739 221.024C548.34 222.879 548.219 224.783 548.379 226.674Z"
        fill="black" />
      <path opacity="0.1"
        d="M527.578 195.774L528.668 196.564C529.587 195.899 530.447 195.157 531.238 194.344C531.614 193.824 531.848 193.214 531.914 192.575C531.981 191.936 531.879 191.291 531.618 190.704C531.518 190.932 531.391 191.147 531.238 191.344C530.008 192.924 527.288 193.794 527.578 195.774Z"
        fill="black" />
      <path opacity="0.1"
        d="M445.409 205.394C445.044 206.124 444.753 206.887 444.539 207.674C446.103 206.801 447.788 206.164 449.539 205.784L445.409 205.394Z"
        fill="black" />
      <path opacity="0.1"
        d="M459.199 194.514C458.542 194.152 457.914 193.741 457.319 193.284C457.294 193.68 457.324 194.077 457.409 194.464C458.006 194.436 458.605 194.452 459.199 194.514Z"
        fill="black" />
      <path opacity="0.1"
        d="M556.968 253.434C556.558 258.284 554.298 262.954 552.468 267.554C548.798 276.774 546.728 286.554 545.178 296.364C543.788 305.154 542.178 315.134 534.678 320.004C532.535 321.284 530.241 322.292 527.848 323.004C517.068 326.734 506.198 330.474 494.848 331.834C483.498 333.194 471.588 332.004 461.688 326.344C458.818 324.846 456.354 322.674 454.508 320.014C451.838 315.784 451.788 310.484 450.508 305.644C449.417 302.05 448.08 298.535 446.508 295.124C444.298 289.744 442.598 284.124 440.908 278.594C439.342 273.454 437.778 268.311 436.218 263.164C435.704 261.616 435.323 260.027 435.078 258.414C434.688 260.974 435.448 263.654 436.218 266.164C437.778 271.317 439.342 276.461 440.908 281.594C442.598 287.164 444.298 292.744 446.508 298.124C448.08 301.535 449.417 305.05 450.508 308.644C451.768 313.484 451.818 318.784 454.508 323.014C456.354 325.674 458.818 327.846 461.688 329.344C471.588 335.004 483.528 336.194 494.848 334.834C506.168 333.474 517.028 329.734 527.848 326.004C530.241 325.292 532.535 324.284 534.678 323.004C542.128 318.134 543.788 308.154 545.178 299.364C546.728 289.554 548.798 279.774 552.468 270.554C554.648 265.074 557.468 259.504 556.988 253.614C556.988 253.554 556.968 253.494 556.968 253.434Z"
        fill="black" />
      <path opacity="0.1"
        d="M437.279 249.564C437.279 249.564 437.279 249.494 437.279 249.454C437.46 247.691 437.303 245.909 436.819 244.204C436.62 243.107 436.489 241.998 436.429 240.884C436.314 242.999 436.445 245.12 436.819 247.204C436.979 247.984 437.159 248.774 437.279 249.564Z"
        fill="black" />
      <path opacity="0.1"
        d="M440.329 225.104C441.098 223.812 441.971 222.585 442.939 221.434C441.109 223.184 437.729 221.624 437.019 219.194C436.757 220.177 436.757 221.211 437.019 222.194C437.265 222.928 437.701 223.584 438.282 224.095C438.864 224.606 439.57 224.954 440.329 225.104Z"
        fill="black" />
    </g>
    <path opacity="0.1"
      d="M690.091 481.674C690.091 481.674 693.261 493.174 690.091 503.174C686.921 513.174 690.091 481.674 690.091 481.674Z"
      fill="black" />
    <path opacity="0.1"
      d="M703.589 493.404C703.589 493.404 704.92 508.004 701.919 510.594C698.919 513.184 703.589 493.404 703.589 493.404Z"
      fill="black" />
    <path d="M489.438 250.349L448.19 237.536L439 122.049H540L530.8 237.519L489.438 250.349Z" fill="#264DE4" />
    <path d="M522.923 230.171L530.786 131.498H489.508V240.527L522.923 230.171Z" fill="#2965F1" />
    <path
      d="M460.096 174.311L461.23 188.472H489.527V174.311H460.096ZM457.818 145.642L458.967 159.804H489.522V145.642H457.793H457.818ZM489.522 211.096H489.468L475.384 206.834L474.483 195.536H461.767L463.537 217.776L489.438 225.848H489.497L489.522 211.096Z"
      fill="#EBEBEB" />
    <path
      d="M518.849 174.311L521.132 145.642H489.438V159.804H507.257L506.108 174.288H489.438V188.45H505.009L503.517 206.834L489.438 211.107V225.842L515.357 217.792L515.547 215.397L518.531 178.105L518.839 174.3L518.849 174.311Z"
      fill="white" />
    <path
      d="M479.168 189.944C477.741 190.321 476.245 190.359 474.801 190.055C473.356 189.751 472.003 189.114 470.848 188.194L472.928 191.084C471.702 191.226 470.46 191.098 469.289 190.709C468.118 190.32 467.046 189.68 466.148 188.834C465.959 191.421 466.067 194.021 466.468 196.584C463.026 196.75 459.638 195.687 456.908 193.584C456.855 194.486 457.079 195.383 457.551 196.154C458.023 196.924 458.72 197.532 459.548 197.894C456.091 197.481 452.601 198.34 449.731 200.311C446.86 202.282 444.805 205.229 443.948 208.604L449.168 209.084C445.066 209.96 441.384 212.207 438.728 215.454C437.128 217.454 435.908 220.014 436.608 222.454C437.308 224.894 440.688 226.454 442.528 224.714C439.911 227.838 438.008 231.497 436.955 235.434C435.901 239.371 435.721 243.49 436.428 247.504C436.903 249.214 437.059 250.997 436.888 252.764C436.558 254.414 435.518 255.844 434.998 257.454C433.998 260.374 434.948 263.544 435.838 266.454L440.528 281.874C442.228 287.444 443.918 293.024 446.138 298.414C447.71 301.822 449.047 305.333 450.138 308.924C451.398 313.764 451.448 319.064 454.138 323.294C455.982 325.956 458.446 328.129 461.318 329.624C471.208 335.284 483.158 336.484 494.478 335.124C505.798 333.764 516.658 330.014 527.428 326.294C529.821 325.573 532.117 324.566 534.268 323.294C541.718 318.414 543.378 308.434 544.768 299.644C546.318 289.844 548.388 280.064 552.058 270.844C554.238 265.354 557.058 259.784 556.578 253.904C555.968 246.094 549.788 239.764 548.258 232.084C547.746 229.517 547.77 226.872 548.328 224.314C548.803 222.79 549.068 221.209 549.118 219.614C548.948 216.394 546.308 213.914 543.828 211.844C538.448 207.351 532.895 203.104 527.168 199.104C526.878 197.104 529.598 196.244 530.828 194.664C532.568 192.434 530.768 188.894 528.128 187.854C525.488 186.814 522.528 187.494 519.778 188.184C519.957 186.777 519.677 185.349 518.98 184.113C518.282 182.877 517.205 181.9 515.907 181.326C514.61 180.751 513.161 180.611 511.778 180.927C510.394 181.242 509.149 181.995 508.228 183.074C507.498 181.4 506.331 179.952 504.85 178.882C503.369 177.813 501.627 177.161 499.808 176.994C493.178 176.474 493.048 181.544 488.808 184.334C484.568 187.124 481.068 183.444 477.808 180.764C477.209 182.279 477.019 183.925 477.258 185.536C477.497 187.148 478.156 188.668 479.168 189.944Z"
      fill="#E5D78C" />
    <path d="M316.173 121.748L298.993 233.947L255.642 243.598L214.13 228.136L212.416 114.644L316.173 121.748Z"
      fill="#E44D26" />
    <path d="M256.361 234.003L291.388 226.213L306.056 130.327L263.659 127.424L256.361 234.003Z" fill="#F16529" />
    <path
      d="M243.39 153.852L261.762 155.11L262.71 141.267L230.145 139.037L230.201 142.774L230.783 181.137L259.849 183.127L260.797 169.284L243.61 168.107L243.39 153.852ZM243.949 188.992L230.924 188.1L231.253 209.961L257.285 219.674L257.347 219.678L258.336 205.234L258.28 205.23L244.1 200.074L243.949 188.992Z"
      fill="#EBEBEB" />
    <path
      d="M259.802 183.124L275.793 184.219L273.056 202.07L258.287 205.243L257.299 219.675L284.467 213.631L284.819 211.304L290.367 175.068L290.938 171.375L260.748 169.307L259.8 183.15L259.802 183.124ZM261.722 155.074L261.72 155.107L293.095 157.256L293.569 154.16L294.67 147.182L295.234 143.488L262.668 141.258L261.723 155.068L261.722 155.074Z"
      fill="white" />
    <path d="M668.953 122.034L768.785 116.245L775.045 224.214L675.213 230.003L668.953 122.034Z" fill="#F7DF1E" />
    <path
      d="M700.439 210.739L707.789 205.295C709.428 208.036 710.906 210.351 714.123 210.164C717.207 209.985 719.074 208.568 718.78 203.497L716.779 168.995L726.16 168.451L728.169 203.092C728.778 213.6 723.365 218.714 715.05 219.196C707.547 219.631 702.948 215.678 700.442 210.735L700.439 210.739ZM733.549 207.724L740.908 202.498C743.125 205.934 745.889 208.384 750.513 208.116C754.402 207.89 756.757 205.646 756.589 202.745C756.387 199.266 753.77 198.183 749.37 196.4L746.962 195.449C740.014 192.727 735.296 189.073 734.817 180.81C734.375 173.199 739.399 167.091 747.775 166.605C753.739 166.259 758.148 168.26 761.58 173.947L754.572 179.446C752.782 176.421 750.97 175.291 748.288 175.447C745.541 175.606 743.906 177.591 744.049 180.056C744.225 183.101 746.038 184.231 750.168 185.877L752.575 186.828C760.756 190.059 765.473 193.568 765.965 202.049C766.495 211.182 760.15 216.569 751.231 217.086C742.506 217.592 736.63 213.404 733.56 207.711"
      fill="black" />
    <path
      d="M694.756 331.05C689.601 331.074 684.679 331.512 680.349 332.277C667.59 334.525 665.274 339.229 665.274 347.905V359.364H695.424V363.183H653.958C645.196 363.183 637.522 368.435 635.123 378.425C632.354 389.877 632.232 397.023 635.123 408.98C637.266 417.881 642.385 424.223 651.147 424.223H661.513V410.487C661.513 400.564 670.124 391.811 680.349 391.811H710.464C718.847 391.811 725.539 384.929 725.539 376.534V347.904C725.539 339.757 718.645 333.636 710.464 332.276C705.283 331.417 699.91 331.025 694.756 331.05ZM678.45 340.265C681.565 340.265 684.108 342.843 684.108 346.011C684.108 349.169 681.564 351.723 678.45 351.723C675.325 351.723 672.793 349.17 672.793 346.011C672.793 342.843 675.325 340.265 678.45 340.265Z"
      fill="url(#paint0_linear)" />
    <path
      d="M729.299 363.182V376.532C729.299 386.882 720.498 395.593 710.463 395.593H680.348C672.099 395.593 665.273 402.633 665.273 410.871V439.498C665.273 447.646 672.378 452.439 680.348 454.775C689.892 457.574 699.044 458.08 710.463 454.775C718.054 452.584 725.538 448.173 725.538 439.498V428.041H695.423V424.222H740.613C749.377 424.222 752.641 418.126 755.688 408.979C758.837 399.563 758.703 390.505 755.688 378.424C753.523 369.727 749.387 363.182 740.613 363.182H729.299ZM712.36 435.679C715.485 435.679 718.018 438.232 718.018 441.391C718.018 444.559 715.485 447.137 712.36 447.137C709.246 447.137 706.703 444.559 706.703 441.391C706.703 438.233 709.247 435.679 712.36 435.679Z"
      fill="url(#paint1_linear)" />
    <path opacity="0.444"
      d="M736.169 474.237C736.169 478.552 718.079 482.049 695.764 482.049C673.449 482.049 655.359 478.552 655.359 474.237C655.359 469.922 673.449 466.424 695.764 466.424C718.079 466.424 736.169 469.922 736.169 474.237Z"
      fill="url(#paint2_radial)" />
    <path
      d="M355.728 550.544V549.704L531.348 547.794L638.348 546.794H638.648L638.538 548.274L638.688 546.794H638.878V546.624L640.248 533.174L640.768 528.084L640.928 526.494L641.068 525.164L647.248 504.554L653.428 483.974L658.628 466.644L666.568 440.164C666.568 440.164 662.068 429.664 659.568 426.664C657.068 423.664 654.568 403.164 654.568 403.164C654.568 403.164 633.228 382.834 623.898 380.494C619.988 379.494 612.268 378.164 604.068 376.494C600.998 375.874 597.848 375.214 594.818 374.494C593.108 374.104 591.428 373.694 589.818 373.284C586.685 372.501 583.597 371.547 580.568 370.424C578.98 369.847 577.469 369.078 576.068 368.134C568.718 362.744 550.298 362.134 549.588 362.134C549.586 362.111 549.586 362.087 549.588 362.064V361.974C549.614 361.554 549.614 361.134 549.588 360.714C549.588 360.314 549.588 359.844 549.498 359.314C549.498 359.154 549.498 358.984 549.428 358.814C549.378 358.454 549.318 358.074 549.228 357.674C549.198 357.495 549.158 357.318 549.108 357.144C548.819 355.939 548.399 354.769 547.858 353.654C547.788 353.494 547.698 353.324 547.618 353.164C547.128 352.24 546.559 351.36 545.918 350.534C545.788 350.364 545.648 350.184 545.498 350.014C544.679 349.048 543.768 348.164 542.778 347.374C542.508 347.164 542.228 346.944 541.938 346.744C541.777 346.613 541.606 346.493 541.428 346.384L540.538 345.804L539.708 345.324C538.978 344.924 538.208 344.534 537.368 344.164C537.108 344.044 536.828 343.934 536.548 343.824C536.268 343.714 535.828 343.544 535.458 343.404H535.398L534.648 343.104C534.078 342.914 533.498 342.744 532.888 342.574L531.958 342.334L530.958 342.104L529.958 341.894C528.958 341.694 527.888 341.514 526.768 341.374L525.628 341.234L524.458 341.114L523.248 341.014L521.528 340.914L519.528 340.844C510.708 340.843 501.912 341.778 493.288 343.634C487.298 342.301 481.162 341.736 475.028 341.954H474.158L473.158 342.014H472.518L471.228 342.134C470.798 342.134 470.358 342.224 469.928 342.284C469.498 342.344 469.048 342.394 468.618 342.464L467.958 342.574C467.308 342.684 466.648 342.804 465.958 342.944C465.738 342.984 465.518 343.034 465.298 343.094C464.428 343.284 463.558 343.514 462.698 343.774C462.268 343.894 461.838 344.034 461.408 344.184C461.188 344.244 460.978 344.324 460.768 344.404L460.128 344.634L459.498 344.884L458.748 345.184C458.368 345.344 457.998 345.514 457.628 345.694C457.418 345.784 457.208 345.884 457.008 345.994C456.808 346.104 456.598 346.194 456.408 346.304C454.147 347.472 452.058 348.946 450.198 350.684L449.688 351.174L449.188 351.684C449.018 351.854 448.858 352.034 448.698 352.214C448.047 352.926 447.439 353.678 446.878 354.464C446.718 354.674 446.568 354.884 446.418 355.104C445.784 356.04 445.209 357.015 444.698 358.024C444.568 358.264 444.448 358.514 444.328 358.754C443.512 360.443 442.843 362.2 442.328 364.004C442.142 364.671 441.972 365.337 441.818 366.004C441.818 366.004 420.648 375.344 403.088 382.104C398.418 383.904 394.018 385.534 390.338 386.764C389.268 387.124 388.268 387.454 387.338 387.764C385.32 388.493 383.222 388.977 381.088 389.204C380.083 389.22 379.08 389.314 378.088 389.484C370.018 390.794 356.188 396.484 354.678 402.194C354.556 402.65 354.522 403.125 354.578 403.594C354.578 403.594 354.578 403.664 354.578 403.704C355.578 410.704 348.578 409.704 348.578 409.704C348.578 409.704 346.078 428.204 342.578 433.204C340.048 436.804 338.318 444.834 338.098 450.894C337.973 452.782 338.121 454.678 338.538 456.524C338.538 456.574 338.538 456.624 338.538 456.664C338.938 458.004 337.978 461.664 336.348 466.354C334.578 471.504 331.998 477.904 329.518 483.944C325.778 493.064 322.258 501.344 322.038 503.164C321.948 503.974 321.688 505.424 321.328 507.294C319.868 514.914 316.628 529.424 315.028 535.294C313.838 539.674 312.108 545.674 310.918 549.794C310.918 549.914 310.848 550.034 310.818 550.144L355.648 549.704V550.544H355.788H355.728Z"
      fill="white" />
    <path
      d="M728.92 527.424C728.92 527.424 728.03 529.544 726.39 532.614C723.91 537.337 720.889 541.757 717.39 545.784L717.12 546.074H715.5L657.76 546.604H656.38L656.21 546.404L645.01 533.114L640.79 528.104L640.62 527.894L640.26 527.474L640.06 527.234L639.8 526.924L631.59 517.184L634.59 504.684L639.7 483.624L639.83 483.114L640.83 479.114L641.54 476.114L643.92 466.334L652.08 432.684L666.58 440.184L681.87 467.184L690.08 481.684H694.58C695.43 481.684 697.38 483.324 699.34 485.214C700.04 485.884 700.74 486.594 701.34 487.214C703.12 489.054 704.53 490.634 704.53 490.634C704.53 490.634 711.82 490.794 713.78 496.534C713.882 496.812 713.965 497.096 714.03 497.384C714.681 499.641 715.527 501.836 716.56 503.944C717.85 506.754 719.47 509.944 721.11 513.134C724.16 518.984 727.26 524.554 728.4 526.574L728.54 526.824L728.92 527.424Z"
      fill="white" />
    <path
      d="M226 392.799C226 402.207 235.218 410.989 249.751 415.939C246.849 430.499 249.231 442.234 257.187 446.807C265.364 451.506 277.548 448.253 289.111 438.18C300.383 447.847 311.775 451.651 319.723 447.065C327.893 442.352 330.378 429.821 327.396 414.806C342.533 409.819 351 402.33 351 392.799C351 383.609 341.765 375.659 327.428 370.741C330.639 355.106 327.918 343.655 319.633 338.894C311.645 334.304 300.121 338.305 288.683 348.224C276.785 337.695 265.374 334.481 257.097 339.256C249.116 343.86 246.839 355.808 249.751 370.637C235.709 375.517 226 383.646 226 392.799Z"
      fill="#D4DFEC" />
    <path
      d="M324.391 375.625C323.239 375.23 322.046 374.856 320.817 374.503C321.019 373.682 321.204 372.871 321.369 372.074C324.074 358.988 322.306 348.446 316.266 344.975C310.475 341.647 301.004 345.117 291.438 353.413C290.518 354.21 289.596 355.055 288.674 355.94C288.06 355.354 287.446 354.789 286.835 354.247C276.81 345.377 266.762 341.639 260.728 345.119C254.942 348.457 253.229 358.368 255.664 370.77C255.899 371.968 256.174 373.191 256.485 374.435C255.063 374.837 253.69 375.266 252.376 375.722C240.623 379.806 233.117 386.206 233.117 392.844C233.117 399.7 241.175 406.577 253.416 410.747C254.383 411.076 255.385 411.387 256.418 411.682C256.083 413.027 255.791 414.346 255.546 415.631C253.224 427.818 255.038 437.494 260.808 440.811C266.768 444.236 276.771 440.715 286.511 432.231C287.281 431.56 288.054 430.849 288.827 430.103C289.831 431.066 290.832 431.977 291.829 432.832C301.263 440.923 310.581 444.19 316.346 440.864C322.3 437.429 324.235 427.034 321.723 414.387C321.531 413.421 321.308 412.434 321.057 411.43C321.76 411.223 322.45 411.009 323.122 410.787C335.848 406.585 344.128 399.792 344.128 392.844C344.128 386.182 336.38 379.738 324.391 375.625Z"
      fill="#53C1DE" />
    <path
      d="M321.632 406.301C321.025 406.501 320.402 406.695 319.768 406.882C318.363 402.45 316.467 397.737 314.146 392.867C316.361 388.113 318.183 383.46 319.549 379.056C320.684 379.384 321.787 379.729 322.849 380.094C333.122 383.618 339.388 388.829 339.388 392.844C339.388 397.12 332.62 402.672 321.632 406.301ZM317.073 415.304C318.184 420.897 318.342 425.953 317.606 429.906C316.946 433.457 315.616 435.825 313.972 436.773C310.473 438.791 302.992 436.168 294.923 429.249C293.998 428.456 293.067 427.609 292.132 426.712C295.26 423.303 298.386 419.34 301.437 414.938C306.804 414.463 311.874 413.688 316.472 412.628C316.699 413.538 316.899 414.431 317.073 415.304ZM270.965 436.425C267.547 437.628 264.825 437.662 263.179 436.716C259.678 434.704 258.222 426.935 260.208 416.513C260.435 415.319 260.706 414.093 261.018 412.84C265.565 413.842 270.598 414.563 275.978 414.998C279.05 419.305 282.266 423.264 285.507 426.731C284.799 427.412 284.094 428.061 283.392 428.672C279.085 432.424 274.769 435.086 270.965 436.425ZM254.952 406.274C249.539 404.431 245.069 402.034 242.005 399.419C239.251 397.07 237.861 394.737 237.861 392.844C237.861 388.815 243.888 383.677 253.939 380.185C255.159 379.761 256.435 379.361 257.76 378.986C259.149 383.49 260.972 388.198 263.171 392.959C260.943 397.79 259.095 402.573 257.692 407.129C256.748 406.859 255.833 406.574 254.952 406.274ZM260.32 369.862C258.234 359.236 259.619 351.221 263.106 349.209C266.82 347.067 275.032 350.122 283.688 357.781C284.241 358.271 284.796 358.783 285.353 359.313C282.128 362.765 278.941 366.694 275.897 370.976C270.676 371.458 265.678 372.233 261.083 373.27C260.794 372.112 260.538 370.974 260.32 369.862ZM308.205 381.645C307.107 379.755 305.979 377.908 304.829 376.113C308.371 376.559 311.765 377.151 314.952 377.876C313.995 380.932 312.803 384.127 311.399 387.402C310.392 385.497 309.327 383.576 308.205 381.645ZM288.678 362.691C290.865 365.052 293.056 367.689 295.21 370.55C293.039 370.448 290.841 370.395 288.625 370.395C286.429 370.395 284.248 370.447 282.09 370.547C284.247 367.713 286.456 365.08 288.678 362.691ZM269.025 381.678C267.928 383.574 266.883 385.485 265.891 387.399C264.51 384.135 263.329 380.925 262.364 377.826C265.531 377.12 268.909 376.542 272.428 376.104C271.262 377.917 270.125 379.776 269.025 381.678V381.678ZM272.53 409.92C268.893 409.516 265.465 408.968 262.298 408.281C263.279 405.127 264.487 401.848 265.897 398.514C266.891 400.427 267.94 402.338 269.044 404.239H269.044C270.169 406.175 271.334 408.071 272.53 409.92ZM288.809 423.33C286.561 420.913 284.319 418.24 282.13 415.364C284.255 415.447 286.422 415.489 288.625 415.489C290.887 415.489 293.124 415.439 295.326 415.341C293.164 418.268 290.981 420.946 288.809 423.33ZM311.444 398.344C312.928 401.715 314.179 404.976 315.172 408.076C311.953 408.808 308.478 409.398 304.816 409.835C305.969 408.016 307.107 406.138 308.224 404.206C309.355 402.252 310.429 400.295 311.444 398.344ZM304.116 401.845C302.381 404.843 300.599 407.706 298.791 410.408C295.497 410.643 292.094 410.764 288.625 410.764C285.17 410.764 281.81 410.656 278.574 410.447C276.692 407.71 274.872 404.839 273.148 401.871H273.148C271.429 398.911 269.846 395.926 268.412 392.957C269.845 389.982 271.424 386.994 273.134 384.039L273.133 384.039C274.848 381.076 276.652 378.22 278.516 375.499C281.818 375.251 285.203 375.121 288.625 375.121C292.062 375.121 295.452 375.252 298.752 375.502C300.588 378.203 302.38 381.05 304.101 384.014C305.841 387.01 307.44 389.979 308.886 392.89C307.445 395.852 305.849 398.85 304.116 401.845ZM313.899 349.069C317.617 351.205 319.062 359.821 316.727 371.12C316.578 371.841 316.41 372.575 316.227 373.319C311.622 372.26 306.621 371.472 301.384 370.982C298.334 366.654 295.173 362.718 292.001 359.311C292.854 358.493 293.705 357.713 294.553 356.977C302.749 349.87 310.409 347.063 313.899 349.069Z"
      fill="#D4DFEC" />
    <path
      d="M288.626 382.965C294.1 382.965 298.539 387.388 298.539 392.844C298.539 398.3 294.1 402.723 288.626 402.723C283.151 402.723 278.713 398.3 278.713 392.844C278.713 387.388 283.151 382.965 288.626 382.965Z"
      fill="#53C1DE" />
  </g>
  <defs>
    <linearGradient id="paint0_linear" x1="630.026" y1="334.628" x2="699.384" y2="393.893"
      gradientUnits="userSpaceOnUse">
      <stop stop-color="#5A9FD4" />
      <stop offset="1" stop-color="#306998" />
    </linearGradient>
    <linearGradient id="paint1_linear" x1="725.64" y1="430.52" x2="700.79" y2="395.602" gradientUnits="userSpaceOnUse">
      <stop stop-color="#FFD43B" />
      <stop offset="1" stop-color="#FFE873" />
    </linearGradient>
    <radialGradient id="paint2_radial" cx="0" cy="0" r="1" gradientUnits="userSpaceOnUse"
      gradientTransform="translate(695.751 474.058) rotate(-90) scale(7.81077 34.438)">
      <stop stop-color="#B8B8B8" stop-opacity="0.498" />
      <stop offset="1" stop-color="#7F7F7F" stop-opacity="0" />
    </radialGradient>
    <clipPath id="clip0">
      <rect width="1042" height="555" fill="white" />
    </clipPath>
  </defs>
</svg>