<svg width="22" height="20" viewBox="0 0 22 20" fill="none" xmlns="http://www.w3.org/2000/svg">
  <path
    d="M18.0884 6.48237C17.8602 6.40211 17.6237 6.32617 17.3802 6.25434C17.4202 6.08745 17.457 5.92272 17.4896 5.76079C18.0257 3.10184 17.6752 0.959773 16.4783 0.254514C15.3306 -0.421737 13.4536 0.283362 11.558 1.96901C11.3757 2.1311 11.1929 2.30271 11.0102 2.48257C10.8884 2.36357 10.7669 2.24857 10.6456 2.13858C8.65895 0.336179 6.66761 -0.423378 5.47186 0.283923C4.32527 0.962134 3.98571 2.97588 4.46828 5.49579C4.51488 5.73918 4.56935 5.98774 4.63095 6.24046C4.34912 6.3222 4.07703 6.40935 3.8167 6.50206C1.48752 7.3318 0 8.6322 0 9.98106C0 11.3742 1.59685 12.7715 4.02288 13.6188C4.21433 13.6856 4.41299 13.7488 4.61771 13.8089C4.55126 14.0822 4.49346 14.35 4.44494 14.6113C3.98481 17.0874 4.34414 19.0536 5.48768 19.7275C6.66886 20.4235 8.6512 19.7081 10.5815 17.9841C10.7341 17.8478 10.8872 17.7033 11.0406 17.5518C11.2394 17.7474 11.4379 17.9325 11.6353 18.1062C13.505 19.7502 15.3517 20.414 16.4942 19.7382C17.6742 19.0402 18.0577 16.9281 17.5598 14.3583C17.5218 14.1621 17.4775 13.9616 17.4278 13.7575C17.567 13.7155 17.7037 13.6721 17.837 13.6269C20.3591 12.7731 22 11.3928 22 9.98106C22 8.62732 20.4645 7.31815 18.0884 6.48237Z"
    fill="#53C1DE" />
  <path
    d="M17.5411 12.7153C17.4208 12.756 17.2973 12.7953 17.1715 12.8335C16.8931 11.9328 16.5173 10.9751 16.0575 9.98565C16.4963 9.01975 16.8576 8.07429 17.1282 7.17949C17.3532 7.24603 17.5717 7.31622 17.7822 7.39028C19.818 8.10638 21.0598 9.16515 21.0598 9.98097C21.0598 10.85 19.7187 11.978 17.5411 12.7153ZM16.6375 14.5447C16.8576 15.6811 16.8891 16.7084 16.7433 17.5116C16.6122 18.2332 16.3487 18.7144 16.0229 18.9071C15.3296 19.3171 13.8469 18.7841 12.2479 17.3782C12.0646 17.217 11.88 17.0449 11.6947 16.8627C12.3146 16.17 12.9342 15.3647 13.5389 14.4703C14.6024 14.3739 15.6072 14.2162 16.5184 14.001C16.5633 14.186 16.6031 14.3674 16.6375 14.5447ZM7.49996 18.8362C6.82257 19.0806 6.28307 19.0876 5.95695 18.8955C5.263 18.4865 4.97451 16.9079 5.36802 14.7903C5.4131 14.5477 5.46675 14.2986 5.52858 14.044C6.4298 14.2476 7.42724 14.3941 8.49332 14.4824C9.10206 15.3576 9.7395 16.1621 10.3819 16.8665C10.2415 17.0049 10.1017 17.1367 9.96271 17.2609C9.10915 18.0233 8.25378 18.5642 7.49996 18.8362ZM4.32649 12.71C3.25375 12.3353 2.36784 11.8484 1.76059 11.3171C1.21494 10.8396 0.939453 10.3656 0.939453 9.98097C0.939453 9.16243 2.13378 8.11839 4.12572 7.40877C4.36742 7.32266 4.62043 7.24151 4.88299 7.16529C5.15828 8.08029 5.51942 9.03695 5.95522 10.0043C5.51378 10.9861 5.14752 11.958 4.86952 12.8837C4.68234 12.8287 4.50099 12.7709 4.32649 12.71ZM5.39027 5.31127C4.97682 3.15228 5.25141 1.52361 5.94238 1.11493C6.67839 0.67955 8.3059 1.3003 10.0213 2.85659C10.1309 2.95606 10.241 3.06017 10.3514 3.16788C9.71217 3.86918 9.08056 4.66759 8.47723 5.53762C7.44255 5.63561 6.45212 5.79302 5.5415 6.00381C5.48425 5.76849 5.43354 5.5373 5.39027 5.31127ZM14.8801 7.70558C14.6624 7.32138 14.4389 6.94626 14.2111 6.58139C14.913 6.67206 15.5855 6.79241 16.2171 6.9397C16.0275 7.56061 15.7912 8.20981 15.513 8.87534C15.3134 8.48822 15.1023 8.0979 14.8801 7.70558ZM11.0102 3.85418C11.4437 4.33405 11.8778 4.86981 12.3048 5.45112C11.8745 5.43035 11.4389 5.41955 10.9997 5.41955C10.5646 5.41955 10.1322 5.43011 9.70457 5.45052C10.132 4.87462 10.5699 4.33957 11.0102 3.85418ZM7.11545 7.71222C6.89799 8.0975 6.69084 8.4857 6.49441 8.87462C6.22073 8.21142 5.98659 7.55925 5.79533 6.92954C6.42303 6.78601 7.09238 6.66865 7.78986 6.57971C7.55881 6.94794 7.33349 7.32582 7.11545 7.71214V7.71222ZM7.80994 13.4507C7.08933 13.3686 6.40991 13.2573 5.78237 13.1177C5.97668 12.4767 6.21599 11.8107 6.49547 11.1332C6.69241 11.5218 6.90038 11.9102 7.11917 12.2963H7.11921C7.34206 12.6897 7.57295 13.075 7.80994 13.4507ZM11.0362 16.1755C10.5907 15.6844 10.1464 15.1412 9.71248 14.5569C10.1337 14.5738 10.5632 14.5824 10.9997 14.5824C11.4481 14.5824 11.8914 14.5721 12.3277 14.5522C11.8993 15.1471 11.4667 15.6911 11.0362 16.1755ZM15.5219 11.0986C15.816 11.7834 16.0639 12.4461 16.2607 13.0761C15.6228 13.2248 14.9341 13.3445 14.2085 13.4335C14.4369 13.0637 14.6623 12.6822 14.8838 12.2897C15.1079 11.8926 15.3207 11.4949 15.5219 11.0986ZM14.0697 11.8099C13.7258 12.4192 13.3728 13.0008 13.0143 13.5498C12.3615 13.5975 11.6871 13.6221 10.9997 13.6221C10.315 13.6221 9.64908 13.6004 9.0078 13.5578C8.63492 13.0016 8.27418 12.4183 7.93248 11.8152H7.93255C7.59175 11.2137 7.27808 10.6072 6.99386 10.004C7.278 9.39947 7.59085 8.79224 7.9297 8.19185L7.92962 8.19197C8.26937 7.58998 8.62693 7.00948 8.99637 6.45675C9.65065 6.40621 10.3216 6.37984 10.9996 6.37984H10.9997C11.6808 6.37984 12.3525 6.40641 13.0066 6.45739C13.3704 7.00608 13.7256 7.5847 14.0666 8.18677C14.4116 8.7956 14.7285 9.39878 15.0151 9.99037C14.7293 10.5921 14.4132 11.2014 14.0697 11.8099ZM16.0085 1.08636C16.7452 1.52045 17.0317 3.27116 16.5688 5.56687C16.5393 5.71336 16.5061 5.86256 16.47 6.01377C15.5572 5.79858 14.5661 5.63845 13.5284 5.53898C12.9239 4.65939 12.2975 3.85974 11.6687 3.16744C11.8377 3.00127 12.0065 2.84282 12.1746 2.6933C13.7988 1.24905 15.3169 0.678829 16.0085 1.08636Z"
    fill="rgb(41, 44, 49)" />
  <path
    d="M10.9977 7.97363C12.0827 7.97363 12.9623 8.87231 12.9623 9.98094C12.9623 11.0895 12.0827 11.9882 10.9977 11.9882C9.91277 11.9882 9.0332 11.0895 9.0332 9.98094C9.0332 8.87231 9.91277 7.97363 10.9977 7.97363Z"
    fill="#53C1DE" />
</svg>